<?xml version="1.0" standalone="no"?>
<!DOCTYPE svg PUBLIC "-//W3C//DTD SVG 20010904//EN"
 "http://www.w3.org/TR/2001/REC-SVG-20010904/DTD/svg10.dtd">
<svg version="1.0" xmlns="http://www.w3.org/2000/svg"
 width="590.000000pt" height="384.000000pt" viewBox="0 0 590.000000 384.000000"
 preserveAspectRatio="xMidYMid meet">

<g transform="translate(0.000000,384.000000) scale(0.100000,-0.100000)"
fill="#000000" stroke="none">
<path d="M2579 3417 c-109 -31 -193 -103 -263 -225 l-46 -79 -119 -5 c-106 -5
-126 -8 -185 -36 -91 -43 -158 -109 -203 -200 -35 -70 -37 -80 -41 -193 l-4
-119 -80 -46 c-102 -58 -156 -113 -198 -198 -29 -58 -35 -82 -38 -156 -5 -106
10 -165 72 -269 l43 -75 -55 -107 c-52 -100 -56 -112 -60 -191 -10 -186 68
-317 245 -414 l73 -39 0 -90 c0 -98 17 -181 51 -247 30 -60 114 -138 184 -173
54 -26 73 -30 185 -35 l124 -5 51 -83 c63 -102 112 -152 184 -190 141 -75 275
-67 436 24 l80 46 40 -22 c168 -92 238 -111 351 -92 137 23 235 96 317 238
l46 82 123 3 c115 4 128 6 189 36 80 40 160 120 197 200 23 51 27 73 30 181
l4 123 82 46 c142 82 215 181 239 320 15 95 -3 176 -65 293 l-50 95 41 71 c70
122 91 214 72 318 -24 131 -94 228 -215 298 -111 65 -106 56 -106 174 0 80 -5
116 -21 159 -43 116 -128 203 -239 247 -41 15 -85 22 -170 26 l-115 4 -50 85
c-59 101 -114 154 -203 196 -62 30 -75 32 -174 32 l-107 0 -109 -56 -108 -56
-49 29 c-110 65 -155 80 -250 84 -55 2 -108 -1 -136 -9z m309 -73 c72 -37 90
-50 80 -59 -7 -7 -77 -49 -156 -94 l-143 -81 -179 2 -180 3 41 69 c52 85 103
138 169 171 71 36 115 45 200 40 66 -3 87 -10 168 -51z m594 27 c74 -28 148
-96 198 -180 22 -37 40 -70 40 -74 0 -4 -80 -7 -177 -7 l-178 0 -152 88 c-84
48 -153 89 -153 92 0 11 116 73 170 91 70 24 173 20 252 -10z m-340 -172 c67
-39 127 -75 133 -80 5 -5 -95 -9 -260 -9 -147 0 -265 3 -262 6 5 6 258 153
264 154 0 0 57 -32 125 -71z m-902 -128 c0 -5 -39 -77 -86 -159 l-86 -149
-149 -86 c-82 -48 -154 -87 -160 -87 -20 0 -4 175 21 243 42 111 163 213 280
236 61 12 180 13 180 2z m350 1 c0 -11 -440 -265 -447 -258 -3 3 10 31 30 63
19 32 53 91 76 131 l42 72 149 0 c83 0 150 -4 150 -8z m946 -101 c104 -60 238
-137 298 -172 l109 -64 168 -290 168 -290 1 -342 0 -341 -169 -293 -169 -292
-292 -168 -292 -169 -340 0 -341 0 -288 166 c-159 91 -293 171 -298 178 -5 6
-84 140 -175 299 l-166 287 0 332 0 331 171 297 171 297 297 171 296 172 331
0 331 0 189 -109z m221 82 c40 -61 141 -238 137 -242 -5 -6 -454 253 -454 262
0 4 67 7 150 7 l150 0 17 -27z m273 -2 c159 -60 250 -197 250 -379 0 -69 -3
-83 -15 -79 -25 10 -280 158 -293 171 -23 22 -180 301 -174 310 9 15 174 -1
232 -23z m-2010 -367 c0 -7 -250 -437 -261 -449 -6 -6 -9 49 -7 149 l3 158
125 73 c123 72 140 80 140 69z m2127 -65 c69 -39 127 -77 129 -83 3 -7 3 -78
2 -159 l-3 -148 -119 208 c-66 114 -126 218 -134 231 -8 12 -11 22 -7 22 4 0
64 -32 132 -71z m-2508 -601 c-45 -79 -88 -149 -94 -156 -10 -11 -22 6 -61 83
-48 95 -49 99 -49 189 0 81 3 98 32 158 37 80 87 131 179 187 l69 41 3 -180 2
-179 -81 -143z m2842 394 c57 -51 105 -142 118 -222 12 -75 -2 -151 -43 -235
-61 -123 -49 -127 -154 54 l-92 160 0 169 c0 93 3 171 6 174 9 10 113 -53 165
-100z m-2761 -599 c-1 -307 8 -297 -96 -115 l-65 114 77 134 c42 74 78 134 80
134 2 0 4 -120 4 -267z m2679 132 c40 -68 71 -131 69 -138 -6 -24 -142 -257
-150 -257 -4 0 -8 120 -8 266 0 146 4 263 9 260 4 -3 41 -62 80 -131z m-2766
-329 l87 -153 0 -177 c0 -97 -3 -176 -7 -176 -23 0 -148 87 -186 130 -83 92
-116 231 -82 345 16 55 83 185 95 185 3 0 44 -69 93 -154z m2926 49 c98 -198
32 -401 -168 -518 -34 -21 -66 -37 -72 -37 -5 0 -9 71 -9 173 l0 172 92 159
91 158 18 -23 c10 -13 32 -51 48 -84z m-2665 -501 c70 -124 127 -227 125 -228
-2 -2 -64 30 -136 72 l-133 76 0 153 c0 84 3 153 8 153 4 -1 65 -102 136 -226z
m2386 72 l0 -154 -132 -76 c-72 -42 -133 -75 -134 -73 -4 4 256 457 262 457 2
0 4 -69 4 -154z m-2368 -284 l153 -89 87 -149 c48 -82 88 -153 88 -158 0 -4
-46 -6 -102 -4 -84 3 -113 8 -158 29 -148 70 -230 210 -230 394 0 36 2 65 4
65 3 0 74 -40 158 -88z m2366 -33 c-5 -109 -43 -193 -118 -263 -79 -74 -145
-99 -268 -104 l-104 -4 15 28 c9 16 49 87 90 158 l75 129 154 88 c122 70 154
85 157 71 2 -9 1 -55 -1 -103z m-1878 -249 c107 -62 197 -114 199 -116 2 -2
-67 -4 -155 -4 l-159 1 -72 127 c-40 71 -73 132 -73 136 0 4 15 -1 33 -12 17
-11 120 -70 227 -132z m1489 128 c-7 -13 -41 -74 -76 -135 l-65 -113 -156 0
c-85 0 -152 3 -149 6 7 7 450 264 455 264 1 0 -3 -10 -9 -22z m-1069 -370
c182 -105 177 -93 55 -154 -92 -45 -161 -57 -239 -43 -79 14 -136 42 -195 95
-47 43 -134 172 -124 187 2 4 80 7 173 7 l170 0 160 -92z m460 84 c0 -9 -246
-152 -262 -152 -16 0 -267 143 -268 153 0 4 119 7 265 7 146 0 265 -3 265 -8z
m440 -1 c0 -22 -76 -138 -117 -179 -80 -80 -212 -122 -320 -103 -56 10 -194
73 -214 97 -7 9 35 38 148 103 l158 91 173 0 c101 0 172 -4 172 -9z"/>
<path d="M2532 2592 c-10 -7 -12 -104 -10 -453 l3 -444 494 -3 c356 -1 498 1
507 9 11 9 14 90 14 436 0 273 -4 431 -10 444 -10 18 -26 19 -498 19 -268 0
-493 -4 -500 -8z m986 -449 l-3 -438 -479 -3 c-345 -1 -483 1 -492 9 -11 9
-14 89 -14 434 0 232 3 425 7 428 3 4 226 7 495 7 l488 0 -2 -437z"/>
<path d="M2710 2388 c-47 -84 -96 -171 -108 -194 l-24 -41 109 -192 108 -191
222 0 221 0 107 186 c69 121 105 193 102 206 -3 10 -51 100 -107 199 l-102
179 -222 0 -221 0 -85 -152z m467 125 c-9 -2 -83 -26 -162 -53 l-145 -49 -25
49 c-14 27 -25 52 -25 55 0 3 84 4 188 4 103 -1 179 -3 169 -6z m82 -188 c17
-93 29 -170 28 -171 -2 -2 -387 233 -395 241 -6 6 323 112 330 106 3 -3 20
-82 37 -176z m-431 126 l20 -49 -82 -79 c-158 -153 -156 -154 -59 20 49 86 91
157 94 157 4 0 15 -22 27 -49z m516 -140 c42 -73 76 -137 76 -142 0 -7 -100
-32 -106 -26 -4 3 -54 281 -54 298 0 18 1 17 84 -130z m-274 -51 c102 -62 190
-118 197 -124 9 -8 -37 -39 -187 -123 -109 -62 -201 -113 -204 -113 -3 0 -6
108 -6 241 0 132 3 238 8 236 4 -2 90 -55 192 -117z m-220 -122 l0 -232 -56
54 c-30 30 -83 86 -117 124 l-61 69 114 108 c63 60 116 108 118 109 1 0 2
-104 2 -232z m570 -3 c0 -7 -160 -288 -169 -298 -5 -5 7 56 26 134 18 79 36
145 38 147 11 11 105 26 105 17z m-167 -182 c-18 -81 -35 -148 -37 -150 -7 -7
-306 72 -307 80 0 8 358 217 372 217 4 0 -9 -66 -28 -147z m-486 7 l82 -85
-24 -38 -23 -39 -76 135 c-77 136 -91 168 -58 132 10 -11 55 -58 99 -105z
m258 -134 l130 -34 -167 -1 -167 -1 20 35 c12 19 28 35 37 35 10 0 76 -16 147
-34z"/>
<path d="M2620 1656 c-6 -8 -10 -25 -8 -38 2 -19 9 -23 38 -23 31 0 35 3 38
29 5 42 -41 64 -68 32z"/>
<path d="M2050 1460 l0 -180 105 0 105 0 0 35 0 34 -67 3 -68 3 -3 143 -3 142
-34 0 -35 0 0 -180z"/>
<path d="M2980 1575 l0 -65 30 0 30 0 0 65 0 65 -30 0 -30 0 0 -65z"/>
<path d="M3100 1460 l0 -182 93 4 c75 3 100 8 130 27 107 66 102 248 -7 305
-29 14 -65 21 -128 24 l-88 4 0 -182z m191 81 c24 -25 29 -38 29 -79 0 -35 -6
-57 -21 -75 -20 -27 -91 -53 -109 -42 -6 3 -10 55 -10 116 l0 109 41 0 c31 0
47 -6 70 -29z"/>
<path d="M2300 1440 c0 -104 1 -112 25 -135 35 -36 111 -31 137 9 5 6 8 1 8
-11 0 -20 5 -23 35 -23 l35 0 0 135 0 135 -35 0 -35 0 0 -83 c0 -93 -15 -127
-55 -127 -35 0 -45 28 -45 124 l0 86 -35 0 -35 0 0 -110z"/>
<path d="M2610 1415 l0 -135 40 0 40 0 0 135 0 135 -40 0 -40 0 0 -135z"/>
<path d="M2793 1538 c-12 -6 -27 -23 -34 -39 -18 -44 2 -81 57 -107 25 -13 44
-28 41 -35 -5 -16 -51 -21 -77 -7 -18 10 -20 8 -20 -24 0 -38 12 -46 70 -46
54 0 86 17 101 53 17 39 -2 73 -56 104 -53 30 -52 48 3 48 42 0 43 1 40 30 -3
29 -5 30 -53 32 -27 1 -60 -3 -72 -9z"/>
<path d="M3503 1530 c-42 -25 -53 -48 -53 -110 0 -92 47 -140 137 -140 69 0
83 8 83 47 0 30 -2 33 -19 23 -42 -22 -121 -6 -121 25 0 12 16 15 75 15 l75 0
0 46 c0 56 -12 79 -50 99 -40 20 -89 19 -127 -5z m110 -70 c5 -18 0 -20 -44
-20 -51 0 -57 6 -36 32 26 33 70 27 80 -12z"/>
<path d="M3721 1523 c6 -15 26 -68 44 -118 18 -49 36 -98 40 -107 5 -13 18
-18 45 -18 43 0 33 -18 111 193 l28 77 -39 0 -39 0 -25 -84 c-14 -46 -26 -89
-26 -95 0 -6 -3 -11 -7 -11 -5 0 -19 42 -33 93 l-25 92 -42 3 -43 3 11 -28z"/>
<path d="M2863 1135 c0 -27 2 -38 4 -22 2 15 2 37 0 50 -2 12 -4 0 -4 -28z"/>
<path d="M3038 1135 c-2 -25 0 -45 4 -45 5 0 8 20 8 45 0 25 -2 45 -4 45 -2 0
-6 -20 -8 -45z"/>
<path d="M3318 1163 c-2 -10 -1 -31 3 -48 6 -28 7 -28 9 -5 1 14 3 35 4 48 3
26 -10 30 -16 5z"/>
<path d="M2424 1154 c9 -8 16 -20 16 -26 0 -6 3 -9 6 -6 8 9 -14 48 -27 48 -6
0 -3 -7 5 -16z"/>
<path d="M3170 1151 c0 -11 9 -23 21 -26 12 -4 18 -12 15 -21 -3 -8 -1 -14 4
-14 20 0 10 38 -11 43 -15 4 -20 11 -16 21 4 9 2 16 -3 16 -6 0 -10 -9 -10
-19z"/>
<path d="M3358 1158 c-2 -7 -1 -26 2 -43 l6 -30 5 32 c6 34 -4 66 -13 41z"/>
<path d="M2471 1137 c-12 -16 -5 -47 11 -47 7 0 7 4 0 13 -7 8 -7 18 -1 27 8
13 10 13 20 0 9 -12 10 -12 7 -1 -6 21 -23 24 -37 8z"/>
<path d="M2535 1140 c-3 -5 3 -18 15 -30 14 -14 20 -16 20 -6 0 8 -8 17 -17
21 -17 7 -16 8 2 15 16 7 17 9 3 9 -9 1 -19 -3 -23 -9z"/>
<path d="M2612 1136 c7 -8 15 -12 17 -11 5 6 -10 25 -20 25 -5 0 -4 -6 3 -14z"/>
<path d="M2660 1139 c0 -5 5 -7 10 -4 6 3 10 8 10 11 0 2 -4 4 -10 4 -5 0 -10
-5 -10 -11z"/>
<path d="M2701 1116 c1 -21 3 -25 6 -11 3 11 9 25 14 31 5 7 3 11 -6 11 -10 0
-15 -10 -14 -31z"/>
<path d="M2755 1140 c-4 -6 -4 -14 -1 -17 3 -4 6 -1 6 5 0 15 26 16 33 2 3 -6
4 -5 3 2 -3 17 -32 22 -41 8z"/>
<path d="M2905 1140 c-4 -6 -4 -14 -1 -17 3 -4 6 -1 6 5 0 15 26 16 33 2 3 -6
4 -5 3 2 -3 17 -32 22 -41 8z"/>
<path d="M3007 1143 c-10 -10 -8 -53 2 -53 5 0 7 9 4 21 -4 12 0 25 8 30 8 5
9 9 3 9 -6 0 -14 -3 -17 -7z"/>
<path d="M3075 1130 c-4 -13 -2 -27 5 -34 8 -8 10 -7 6 4 -3 8 -1 22 4 30 9
13 11 13 21 0 9 -13 10 -13 6 0 -6 24 -35 24 -42 0z"/>
<path d="M3247 1143 c-10 -9 -9 -41 1 -47 5 -3 8 5 8 17 -1 13 5 22 14 22 9 0
15 -9 14 -23 0 -14 3 -19 9 -13 14 14 -2 51 -22 51 -10 0 -21 -3 -24 -7z"/>
<path d="M3401 1120 c11 -31 29 -41 29 -15 0 8 5 15 10 15 6 0 10 7 10 15 0
23 -17 18 -24 -7 l-7 -23 -9 23 c-14 33 -21 27 -9 -8z"/>
<path d="M3471 1134 c0 -11 3 -14 6 -6 3 7 2 16 -1 19 -3 4 -6 -2 -5 -13z"/>
<path d="M3516 1143 c7 -4 14 -19 17 -33 4 -22 5 -21 4 4 -1 17 -9 31 -17 33
-10 3 -11 2 -4 -4z"/>
<path d="M3561 1116 c1 -21 3 -25 6 -11 3 11 9 25 14 31 5 7 3 11 -6 11 -10 0
-15 -10 -14 -31z"/>
<path d="M3617 1143 c-10 -9 -8 -53 2 -53 4 0 6 11 4 24 -4 17 0 25 14 29 13
3 14 5 2 6 -9 0 -19 -2 -22 -6z"/>
<path d="M2591 1104 c0 -11 3 -14 6 -6 3 7 2 16 -1 19 -3 4 -6 -2 -5 -13z"/>
<path d="M3495 1111 c-3 -5 -2 -12 3 -15 5 -3 9 1 9 9 0 17 -3 19 -12 6z"/>
<path d="M2420 1100 c-13 -8 -12 -10 3 -10 9 0 17 5 17 10 0 12 -1 12 -20 0z"/>
<path d="M2750 1100 c0 -5 5 -10 11 -10 5 0 7 5 4 10 -3 6 -8 10 -11 10 -2 0
-4 -4 -4 -10z"/>
<path d="M2785 1100 c-3 -5 -1 -10 4 -10 6 0 11 5 11 10 0 6 -2 10 -4 10 -3 0
-8 -4 -11 -10z"/>
<path d="M2900 1100 c0 -5 5 -10 11 -10 5 0 7 5 4 10 -3 6 -8 10 -11 10 -2 0
-4 -4 -4 -10z"/>
<path d="M2935 1100 c-3 -5 -1 -10 4 -10 6 0 11 5 11 10 0 6 -2 10 -4 10 -3 0
-8 -4 -11 -10z"/>
<path d="M3450 1100 c0 -5 5 -10 10 -10 6 0 10 5 10 10 0 6 -4 10 -10 10 -5 0
-10 -4 -10 -10z"/>
</g>
</svg>
